#!OML:ASF X:\für Bonn\!DataBase\2005_08_10_Bjorn_Final\c3d\bjorn.ASF
:FULLY-SPECIFIED
:DEGREES
167
root 0.270317 6.53545 16.6981 -396.919 -188.282 -733.861
lowerback 51.7065 -20.702 3.1447
upperback 24.4985 -9.75886 -1.1627
thorax 6.53404 1.27732 1.14327
lowerneck -5.27071 5.76097 3.33791
upperneck 18.012 11.3168 -15.0319
head 7.44869 4.84044 -4.47058
rclavicle -9.54166e-015 -7.31528e-014
rhumerus -201.909 -149.769 111.332
rradius 34.2413
rwrist -12.2281
rhand -21.2447 3.59107
rfingers 7.12502
rthumb 5.13804 -26.3266
lclavicle -9.54166e-015 -7.31528e-014
lhumerus -26.8468 -29.1468 80.9099
lradius 36.0158
lwrist -6.25843
lhand -20.792 -364.278
lfingers 7.12502
lthumb 5.57522 25.6288
rfemur -3.06632 -83.8867 -97.8191
rtibia 147.765
rfoot -54.655 55.1451
rtoes -12.2081
lfemur 195.837 117.903 273.355
ltibia 153.112
lfoot -54.6831 -20.9653
ltoes -41.7337
168
root 0.319785 6.46183 16.7361 -397.548 -187.913 -733.784
lowerback 51.6708 -20.6365 2.73151
upperback 24.6818 -9.82289 -1.5784
thorax 6.70524 1.30654 0.899186
lowerneck -5.04856 5.83592 4.00481
upperneck 17.7359 11.2796 -15.1022
head 7.35081 4.8715 -4.61594
rclavicle -2.8625e-014 3.65764e-014
rhumerus -202.148 -149.198 110.373
rradius 34.2822
rwrist -11.8408
rhand -21.4657 3.62533
rfingers 7.12502
rthumb 4.92468 -26.2974
lclavicle -2.8625e-014 3.65764e-014
lhumerus -27.1655 -27.8808 82.1091
lradius 34.1758
lwrist -6.29787
lhand -20.411 -364.399
lfingers 7.12502
lthumb 5.94302 25.4973
rfemur 9.08488 -83.4364 -110.304
rtibia 148.154
rfoot -55.3542 55.382
rtoes -11.5935
lfemur 195.997 118.247 274.014
ltibia 153.211
lfoot -54.7969 -20.8926
ltoes -41.288
169
root 0.368398 6.3925 16.7754 -398.168 -187.545 -733.694
lowerback 51.6603 -20.5378 2.25348
upperback 24.8691 -9.85699 -1.93086
thorax 6.89841 1.33786 0.741744
lowerneck -4.79611 5.89621 4.5819
upperneck 17.4177 11.2402 -15.2042
head 7.2318 4.89773 -4.75742
rclavicle 1.90833e-014 8.11041e-014
rhumerus -202.311 -148.512 109.545
rradius 34.2304
rwrist -11.2551
rhand -21.5623 3.5732
rfingers 7.12502
rthumb 4.83146 -26.3517
lclavicle 1.90833e-014 8.11041e-014
lhumerus -27.3189 -26.2952 83.235
lradius 32.2247
lwrist -6.45109
lhand -19.6972 -364.68
lfingers 7.12502
lthumb 6.63214 25.1961
rfemur 18.9876 -82.7343 -120.488
rtibia 148.526
rfoot -56.2944 55.357
rtoes -11.3837
lfemur 195.911 118.503 274.338
ltibia 153.284
lfoot -54.7774 -20.9202
ltoes -40.6671
170
root 0.417017 6.3249 16.8159 -398.774 -187.168 -733.608
lowerback 51.6415 -20.42 1.78485
upperback 25.0581 -9.85755 -2.28354
thorax 7.09561 1.38824 0.570419
lowerneck -4.58712 5.92774 5.18031
upperneck 17.1606 11.1797 -15.3153
head 7.14023 4.91083 -4.90679
rclavicle -3.18055e-014 -4.77083e-014
rhumerus -202.505 -147.756 108.756
rradius 34.1221
rwrist -10.6168
rhand -21.6496 3.57871
rfingers 7.12502
rthumb 4.74716 -26.3481
lclavicle -3.18055e-014 -4.77083e-014
lhumerus -27.3729 -24.4831 84.171
lradius 30.3155
lwrist -6.68868
lhand -18.6743 -364.989
lfingers 7.12502
lthumb 7.61953 24.8538
rfemur 26.5051 -81.8873 -128.271
rtibia 148.873
rfoot -57.214 55.2434
rtoes -11.2253
lfemur 195.846 118.731 274.625
ltibia 153.341
lfoot -54.7183 -20.9872
ltoes -40.0043
171
root 0.465131 6.25964 16.8574 -399.324 -186.748 -733.538
lowerback 51.5377 -20.2727 1.31162
upperback 25.2696 -9.82546 -2.60723
thorax 7.33539 1.44961 0.421374
lowerneck -4.41789 5.9407 5.73963
upperneck 16.9066 11.0918 -15.3884
head 7.04976 4.90802 -5.03825
rclavicle 5.725e-014 2.38542e-014
rhumerus -202.672 -147.084 108.029
rradius 33.9542
rwrist -10.1712
rhand -21.7538 3.54123
rfingers 7.12502
rthumb 4.64649 -26.3878
lclavicle 5.725e-014 2.38542e-014
lhumerus -27.3075 -22.5164 84.965
lradius 28.4645
lwrist -6.94887
lhand -17.5473 -365.266
lfingers 7.12502
lthumb 8.70717 24.5339
rfemur 32.2123 -81.0023 -134.3
rtibia 149.219
rfoot -58.1583 54.9675
rtoes -11.4393
lfemur 195.744 118.849 274.745
ltibia 153.396
lfoot -54.6546 -20.8465
ltoes -39.4158
172
root 0.513862 6.19704 16.9002 -399.865 -186.296 -733.489
lowerback 51.4517 -20.0945 0.809129
upperback 25.4588 -9.76675 -2.91181
thorax 7.55735 1.51628 0.297412
lowerneck -4.289 5.94269 6.23706
upperneck 16.7044 11.0049 -15.4339
head 6.97864 4.9007 -5.14896
rclavicle -1.59028e-014 4.45278e-014
rhumerus -202.865 -146.608 107.359
rradius 33.716
rwrist -9.87133
rhand -21.8906 3.5017
rfingers 7.12502
rthumb 4.51442 -26.4302
lclavicle -1.59028e-014 4.45278e-014
lhumerus -27.0913 -20.1428 85.5549
lradius 26.5726
lwrist -7.38182
lhand -16.3627 -365.579
lfingers 7.12502
lthumb 9.85026 24.1704
rfemur 36.2995 -80.1245 -138.715
rtibia 149.536
rfoot -58.8545 54.7702
rtoes -11.5017
lfemur 195.343 118.867 274.431
ltibia 153.42
lfoot -54.4774 -20.7451
ltoes -38.7959
173
root 0.56155 6.137 16.945 -400.374 -185.849 -733.424
lowerback 51.3609 -19.891 0.332485
upperback 25.6426 -9.65446 -3.174
thorax 7.78286 1.60798 0.192833
lowerneck -4.26979 5.93275 6.62718
upperneck 16.5796 10.9108 -15.4011
head 6.94142 4.88103 -5.21308
rclavicle 9.54166e-015 2.8625e-014
rhumerus -203.038 -146.237 106.75
rradius 33.3913
rwrist -9.7928
rhand -22.043 3.53367
rfingers 7.12502
rthumb 4.36723 -26.4013
lclavicle 9.54166e-015 2.8625e-014
lhumerus -26.6843 -17.386 85.9445
lradius 24.5924
lwrist -8.18918
lhand -15.1278 -365.866
lfingers 7.12502
lthumb 11.0415 23.8235
rfemur 39.3318 -79.298 -142.01
rtibia 149.821
rfoot -59.3643 54.6144
rtoes -11.4432
lfemur 195.002 118.837 274.132
ltibia 153.437
lfoot -54.282 -20.6006
ltoes -38.1537
174
root 0.610416 6.0785 16.9909 -400.877 -185.382 -733.341
lowerback 51.2887 -19.689 -0.103532
upperback 25.8013 -9.52266 -3.44139
thorax 7.97466 1.71505 0.060803
lowerneck -4.27403 5.90937 6.95654
upperneck 16.5393 10.8161 -15.3208
head 6.92936 4.85856 -5.25105
rclavicle 3.49861e-014 6.83819e-014
rhumerus -203.287 -145.917 106.185
rradius 33.0514
rwrist -9.77595
rhand -22.1409 3.56942
rfingers 7.12502
rthumb 4.2727 -26.3675
lclavicle 3.49861e-014 6.83819e-014
lhumerus -26.2639 -14.3824 86.115
lradius 22.6748
lwrist -9.43414
lhand -13.6631 -366.01
lfingers 7.12502
lthumb 12.454 23.5988
rfemur 41.9251 -78.3925 -144.853
rtibia 150.108
rfoot -60.0213 54.3079
rtoes -11.6195
lfemur 194.54 118.78 273.673
ltibia 153.434
lfoot -54.046 -20.5824
ltoes -37.4025
175
root 0.657722 6.02361 17.0384 -401.348 -184.916 -733.258
lowerback 51.1972 -19.4669 -0.491693
upperback 25.9439 -9.34816 -3.69381
thorax 8.15004 1.84441 -0.0881349
lowerneck -4.3206 5.86236 7.20272
upperneck 16.5219 10.6888 -15.1787
head 6.92042 4.81759 -5.25618
rclavicle -8.90555e-014 -6.36111e-015
rhumerus -203.59 -145.608 105.651
rradius 32.7239
rwrist -9.88685
rhand -22.2719 3.57216
rfingers 7.12502
rthumb 4.14619 -26.3672
lclavicle -8.90555e-014 -6.36111e-015
lhumerus -25.8477 -11.279 86.1301
lradius 20.8535
lwrist -10.9404
lhand -12.2068 -366.059
lfingers 7.12502
lthumb 13.8577 23.4592
rfemur 43.6317 -77.6771 -146.776
rtibia 150.359
rfoot -60.324 54.1011
rtoes -11.7144
lfemur 194.045 118.641 273.092
ltibia 153.412
lfoot -53.7274 -20.7156
ltoes -36.452
176
root 0.705045 5.96876 17.087 -401.804 -184.437 -733.136
lowerback 51.1471 -19.2454 -0.842608
upperback 26.0483 -9.15506 -3.91182
thorax 8.28097 1.98203 -0.221071
lowerneck -4.32157 5.7854 7.2798
upperneck 16.4214 10.5031 -14.9347
head 6.85553 4.74959 -5.20458
rclavicle 7.31528e-014 1.145e-013
rhumerus -203.901 -145.373 105.181
rradius 32.3389
rwrist -10.1189
rhand -22.3801 3.50726
rfingers 7.12502
rthumb 4.04177 -26.4341
lclavicle 7.31528e-014 1.145e-013
lhumerus -25.4823 -7.88336 85.9722
lradius 19.1054
lwrist -12.8596
lhand -10.8991 -366.085
lfingers 7.12502
lthumb 15.1177 23.3426
rfemur 45.5202 -76.8219 -148.843
rtibia 150.609
rfoot -60.7818 53.798
rtoes -11.8466
lfemur 193.257 118.427 272.231
ltibia 153.391
lfoot -53.281 -20.9587
ltoes -35.2112
177
root 0.751515 5.91688 17.1368 -402.244 -183.943 -733.032
lowerback 51.1034 -19.0007 -1.1889
upperback 26.1347 -8.93155 -4.1199
thorax 8.39383 2.13306 -0.354015
lowerneck -4.37065 5.68118 7.29847
upperneck 16.3352 10.2743 -14.6311
head 6.79311 4.65859 -5.12597
rclavicle -2.8625e-014 1.43125e-014
rhumerus -204.256 -145.122 104.749
rradius 31.9231
rwrist -10.3841
rhand -22.4736 3.5144
rfingers 7.12502
rthumb 3.95147 -26.4287
lclavicle -2.8625e-014 1.43125e-014
lhumerus -25.1605 -4.03924 85.5474
lradius 17.4332
lwrist -15.3943
lhand -9.92048 -366.198
lfingers 7.12502
lthumb 16.0602 23.156
rfemur 46.8675 -76.1056 -150.364
rtibia 150.833
rfoot -61.063 53.4965
rtoes -12.0716
lfemur 192.59 118.222 271.383
ltibia 153.335
lfoot -52.8616 -21.2151
ltoes -33.8557
